<svg version="1.2" xmlns="http://www.w3.org/2000/svg" viewBox="0 0 1800 800" width="1800" height="800">
	<title>civitas-ai</title>
	<defs>
		<linearGradient id="g1" x1="-42.7" y1="888.6" x2="-42.7" y2="417.6" gradientUnits="userSpaceOnUse">
			<stop offset="0" stop-color="#aefbff"/>
			<stop offset="1" stop-color="#639fff"/>
		</linearGradient>
	</defs>
	<style>
		.s0 { fill: url(#g1) } 
		.s1 { mix-blend-mode: soft-light;fill: #ffffff } 
		.s2 { opacity: .5;mix-blend-mode: soft-light;fill: #ffffff } 
	</style>
	<g id="layer1">
		<g id="&lt;Group&gt;">
			<g id="&lt;Clip Group&gt;">
				<g id="&lt;Group&gt;">
					<path id="&lt;Path&gt;" class="s0" d="m1761.3 888.2l-1800 0.4v-297l103.3-53.8l150.1 111.4l6-0.4l102.4 86l160.6-118.2l9.1 0.7l131.2 54.2l5.6-1l167.1-193.6l3.3-0.9l44.2-58.4l6.8 3.9l71.6 106h5.4l115.4 148.1l17.9-11.8l12.8-17.3l4.6 0.4l71.3-53.1l14.4 6.5l66.2 41.3l4.3 0.6l-134.2 36.9l49.2-11.4l31.1-15.9l7.6-2.6l99.6-67.5l7.6-2.6l79.8-64.2l279.1 155.5l8.1 0.1l98.5 36.3z" />
					<path id="&lt;Path&gt;" class="s1" d="m851 421.5l71.6 106l-32.3 84.2l37.7-84.2l108.7 140.1l-75.4 56.2l-107.1-88.7l21.9-76.9l-6.6-3l-12.5 25l-5.7-2.3l5.7-55.3l-27.3-38.6l-31.8 53.8l49.6-94.8l-11.3-3.4l-42.5 64.1l50.5-86.1z" />
					<path id="&lt;Path&gt;" class="s1" d="m695.2 645l98.5-141.3l-51.5 77.3l2.2 3l-27.2 48.6z" />
					<path id="&lt;Path&gt;" class="s1" d="m1571 623.8l-109.4 21.2l34.5-46.6l-6.6-4.6l-59.9 76.6l-51.9-43.2l17.8-24.6l-4.6-0.4l-23.1 33.8l38.3-69.4l-31.1-22l-22.3 17.4l29.1-34.5l-6.2-1.9l-46.1 48.7l46.1-59.4z" />
					<path id="&lt;Path&gt;" class="s1" d="m492.8 617.3l91 37.2l-20.7 24.2l-44.5-2l27.1-37.5l-8.2-1.1l-11.6 10.7l6.9-7.7l-4.1-0.5l-45 45l-31-8.4l31-50.8l-5.5 1.6l-17.5 11.3l23-22.7z" />
					<path id="&lt;Path&gt;" class="s2" d="m976 588.9l-29 123.1l-8.8-7.4l17.7-125.2l-27.9 116.9l-54.5-45.3l54.5-123.5z" />
					<path id="&lt;Path&gt;" class="s1" d="m891.5 481.4l-22 73.8l-12.5 25l-5.7-2.3l22.2-103l-16.5 47.7l-27.3-38.6l-31.8 53.8l49.6-94.8l3.5-21.5z" />
					<path id="&lt;Path&gt;" class="s2" d="m1464.2 564.3l-44.8 97.6l-10-8.3l37.6-84.4l-43.8 79.2l-25.5-21.2l17.8-24.6l22.6-37.4l-27.2 37l-23.1 33.8l50.3-97.4z" />
					<path id="&lt;Path&gt;" class="s1" d="m196.5 781.7l56.3-63.4l-98 94.3l-129.6-22.1l139.6-154.5l-33.5 9l-63.3 68.5l78.9-96.9h-5.6l-55.5 55.6l-71.2-46.5l62.5-53.4h-3.8l-37.5 21l-9.6-30.3l38.4-25.2l150.1 111.4l-81.5 92.4l87.5-92.8l62.3 52.3z" />
					<path id="&lt;Path&gt;" class="s1" d="m270.9 690.9l-85 91.7l-41.7-11.9l83.4-95.5l-6.9-4.8l-110.6 129.7l-21.4-2.6l44.5-55.9l87.5-92.8z" />
					<path id="&lt;Path&gt;" class="s1" d="m93.1 558.9l-57.3 34.4l-1.1-3.4l36.2-40.5l-1.7-2.5l-37.9 32.3l-5.1-16.2l38.4-25.2z" />
					<path id="&lt;Path&gt;" class="s1" d="m152.7 603.1l-66.9 69.1l-8.9-5.9l49.9-73h-4.6l-56.3 65.9l-32-20.9l64.1-75.5z" />
				</g>
			</g>
		</g>
	</g>
</svg>