<svg version="1.2" xmlns="http://www.w3.org/2000/svg" viewBox="0 0 1800 800" width="1800" height="800"><defs><linearGradient id="P" gradientUnits="userSpaceOnUse"/><linearGradient id="g1" x1="956.3" y1="519.5" x2="956.3" y2="134.5" href="#P"><stop stop-color="#c6ccf3"/><stop offset="1" stop-color="#ffffff"/></linearGradient><linearGradient id="g2" x1="1760.4" y1="467" x2="1788.5" y2="429.3" href="#P"><stop stop-color="#3e0227"/><stop offset="1" stop-color="#ff3d2a"/></linearGradient><linearGradient id="g3" x1="1866" y1="309.7" x2="1846.4" y2="526.6" href="#P"><stop stop-color="#3e0227"/><stop offset="1" stop-color="#ff3d2a"/></linearGradient><linearGradient id="g4" x1="1685.6" y1="436.2" x2="1718.5" y2="290.9" href="#P"><stop stop-color="#3e0227"/><stop offset="1" stop-color="#ff3d2a"/></linearGradient><linearGradient id="g5" x1="1773.7" y1="302.6" x2="1755.5" y2="504.6" href="#P"><stop stop-color="#3e0227"/><stop offset="1" stop-color="#ff3d2a"/></linearGradient><linearGradient id="g6" x1="1807.7" y1="354" x2="1795.6" y2="488.1" href="#P"><stop stop-color="#3e0227"/><stop offset="1" stop-color="#ff3d2a"/></linearGradient><linearGradient id="g7" x1="1422.4" y1="359.4" x2="1450.3" y2="484" href="#P"><stop stop-color="#3e0227"/><stop offset="1" stop-color="#ff3d2a"/></linearGradient><linearGradient id="g8" x1="1597.3" y1="273.5" x2="1690.2" y2="408.8" href="#P"><stop stop-color="#3e0227"/><stop offset="1" stop-color="#ff3d2a"/></linearGradient><linearGradient id="g9" x1="1441.4" y1="373.4" x2="1500.4" y2="174.2" href="#P"><stop stop-color="#3e0227"/><stop offset="1" stop-color="#ff3d2a"/></linearGradient><linearGradient id="g10" x1="1508.8" y1="144.2" x2="1478.4" y2="481" href="#P"><stop stop-color="#3e0227"/><stop offset="1" stop-color="#ff3d2a"/></linearGradient><linearGradient id="g11" x1="1521.2" y1="184.4" x2="1494.7" y2="477.3" href="#P"><stop stop-color="#3e0227"/><stop offset="1" stop-color="#ff3d2a"/></linearGradient><linearGradient id="g12" x1="1263.4" y1="520.7" x2="1251.3" y2="393.8" href="#P"><stop stop-color="#3e0227"/><stop offset="1" stop-color="#ff3d2a"/></linearGradient><linearGradient id="g13" x1="1315.1" y1="149.5" x2="1283.8" y2="495.6" href="#P"><stop stop-color="#3e0227"/><stop offset="1" stop-color="#ff3d2a"/></linearGradient><linearGradient id="g14" x1="1565.2" y1="106.3" x2="1527.9" y2="520.2" href="#P"><stop stop-color="#3e0227"/><stop offset="1" stop-color="#ff3d2a"/></linearGradient><linearGradient id="g15" x1="1439.9" y1="478.9" x2="1456.4" y2="408.7" href="#P"><stop stop-color="#3e0227"/><stop offset="1" stop-color="#ff3d2a"/></linearGradient><linearGradient id="g16" x1="1591.5" y1="433.8" x2="1600.1" y2="392.1" href="#P"><stop stop-color="#3e0227"/><stop offset="1" stop-color="#ff3d2a"/></linearGradient><radialGradient id="g17" cx="1540.2" cy="323.2" r="260.1" href="#P"><stop stop-color="#ffab00"/><stop offset="1" stop-color="#6d0000"/></radialGradient><radialGradient id="g18" cx="1999" cy="486.1" r="100.7" href="#P"><stop stop-color="#ffab00"/><stop offset="1" stop-color="#6d0000"/></radialGradient><linearGradient id="g19" x1="1495.8" y1="322.1" x2="1752.4" y2="322.1" href="#P"><stop stop-color="#b3d9ff"/><stop offset="1" stop-color="#b3daff"/></linearGradient><linearGradient id="g20" x1="1712.9" y1="425.9" x2="1869.7" y2="425.9" href="#P"><stop stop-color="#b3d9ff"/><stop offset="1" stop-color="#b3daff"/></linearGradient><linearGradient id="g21" x1="1304.5" y1="415.6" x2="1576.7" y2="415.6" href="#P"><stop stop-color="#b3d9ff"/><stop offset="1" stop-color="#b3daff"/></linearGradient><linearGradient id="g22" x1="-165.3" y1="245.2" x2="533.2" y2="245.2" href="#P"><stop stop-color="#c6ccf3"/><stop offset="1" stop-color="#ffffff"/></linearGradient><linearGradient id="g23" x1="139.7" y1="374" x2="169.3" y2="274" href="#P"><stop stop-color="#3e0227"/><stop offset="1" stop-color="#ff3d2a"/></linearGradient><linearGradient id="g24" x1="80.7" y1="389.9" x2="93.4" y2="347.2" href="#P"><stop stop-color="#3e0227"/><stop offset="1" stop-color="#ff3d2a"/></linearGradient><linearGradient id="g25" x1="25.5" y1="397.2" x2="32.4" y2="373.7" href="#P"><stop stop-color="#3e0227"/><stop offset="1" stop-color="#ff3d2a"/></linearGradient><linearGradient id="g26" x1="27.3" y1="324" x2="433.8" y2="324" href="#P"><stop stop-color="#b3d9ff"/><stop offset="1" stop-color="#b3daff"/></linearGradient><linearGradient id="g27" x1="280.5" y1="229.9" x2="587.1" y2="229.9" href="#P"><stop stop-color="#c6ccf3"/><stop offset="1" stop-color="#ffffff"/></linearGradient><linearGradient id="g28" x1="408.5" y1="305.1" x2="417.5" y2="274.8" href="#P"><stop stop-color="#3e0227"/><stop offset="1" stop-color="#ff3d2a"/></linearGradient><linearGradient id="g29" x1="337.6" y1="314.6" x2="354.8" y2="256.3" href="#P"><stop stop-color="#3e0227"/><stop offset="1" stop-color="#ff3d2a"/></linearGradient></defs><style>.s0{fill:url(#g1)}.s1{fill:url(#g2)}.s2{fill:url(#g3)}.s3{fill:url(#g4)}.s4{fill:url(#g5)}.s5{fill:url(#g6)}.s6{fill:url(#g7)}.s7{fill:url(#g8)}.s8{fill:url(#g9)}.s9{fill:url(#g10)}.s10{fill:url(#g11)}.s11{fill:url(#g12)}.s12{fill:url(#g13)}.s13{fill:url(#g14)}.s14{fill:url(#g15)}.s15{fill:url(#g16)}.s16{fill:#a8b4ec}.s17{mix-blend-mode: screen;fill:url(#g17)}.s18{mix-blend-mode: screen;fill:url(#g18)}.s19{opacity: .2;mix-blend-mode: multiply;fill:url(#g19)}.s20{opacity: .2;mix-blend-mode: multiply;fill:url(#g20)}.s21{opacity: .2;mix-blend-mode: multiply;fill:url(#g21)}.s22{fill:url(#g22)}.s23{opacity: .2;mix-blend-mode: screen;fill:url(#g23)}.s24{opacity: .2;mix-blend-mode: screen;fill:url(#g24)}.s25{opacity: .2;mix-blend-mode: screen;fill:url(#g25)}.s26{opacity: .2;mix-blend-mode: multiply;fill:url(#g26)}.s27{fill:url(#g27)}.s28{opacity: .2;mix-blend-mode: screen;fill:url(#g28)}.s29{opacity: .2;mix-blend-mode: screen;fill:url(#g29)}</style><path class="s0" d="m960.3 519.5l262.8-7.5q-5.1-48.7 40.5-15.6q10.5-177.5 147.6-125.9q20.9-127 73.8-51.8q80-242 193.8-208.5q113.9 33.6 73.6 240q63.9-50.5 108.2-25.2c43 24.6 0.1 132.8-2.4 138.8q0 0.2-0.1 0.3q0.7 0 1.4-0.1q31-1.3 2.3 40.4c127.6-24.7 271.9 0.6 277.9 1.7q0.2 0 0.2 0z" /><g style="opacity: .2;mix-blend-mode: screen"><path class="s1" d="m1744 493.9q94.1-34.6 120.1-29.7q26 4.9-2.3 40.2q-52.2-12.8-117.8-10.5z" /><path class="s2" d="m1837.5 504.4q-104.2-19.2-187.8 3.1z" /><path class="s3" d="m1697.9 402.9q62.9-85.1 138.1-83.5q75.1 1.5 27 130.8q-142.8 4.5-165.1-47.3z" /><path class="s4" d="m1672.2 469.7q37.6-14.7 76.2 2q-16.3 35.4-76.2-2z" /><path class="s5" d="m1749 464.7q20.1-7.8 40.7 1.1q-27.6 23.9-40.7-1.1z" /><path class="s6" d="m1414.7 467.6q19.2-14.5 38.4 0.8q-22.3 15.1-38.4-0.8z" /><path class="s7" d="m1668.4 399.7q10.7-20.7 35.8-9.8q-13.4 22.2-35.8 9.8z" /><path class="s8" d="m1617.3 400q-91.4 10.1-129.9-20.2q34.4-266.6 165.3-272.4q131-5.7 102 227.4q-46 55.1-137.4 65.2z" /><path class="s9" d="m1416.4 376.4q6.8-65.4 31.1-72.3q24.3-6.9 39.9 28.3q-13.4 54.8-71 44z" /><path class="s10" d="m1445.5 387q15.2-6 28.5-4.5q13.4 1.5 22.1 19.6q-30.5 6.6-50.6-15.1z" /><path class="s11" d="m1265.1 493.1c-0.1-22.9 18.2-136.9 92.7-125.6q74.5 11.4 132.3 52.1q-48.9 51.8-225 73.5z" /><path class="s12" d="m1225.2 512.1q-0.5-19.2 10.1-24q10.6-4.9 40.7 20.9z" /><path class="s13" d="m1276 512.1q62-28.8 129.9-33.4q67.8-4.5 116.3 26.5q-158.6 9.7-246.2 6.9z" /><path class="s14" d="m1447.5 459q34.8-33.9 86.4-42.6q51.6-8.7 150.3 71.1q-85.2 8.7-131.5 9.2q-46.3 0.5-105.2-37.7z" /><path class="s15" d="m1598.6 418q35.5-19.1 63.6-14.6q32.3 5.3 64.4 55.5q-89.8 12.5-128-40.9z" /></g><path class="s16" d="m960.3 519.5q417.1-9.9 607.2-12.4q190-2.5 572.4-1z" /><path class="s17" d="m1858.2 463.8q-2.7-0.2-4.9 0.1q54-122.4-2.7-137.7q-56.8-15.4-106.9 33.4q49.5-232.7-70.6-238q-117.9-5.2-184 204.3q-16.6-28.3-41.6-21.8q-25.1 6.5-31.1 72.3q-63.5-20.4-105.7 19.3q-42.2 39.7-42.7 107q-19.7-18.7-32.7-14.6q-13 4-12.2 23.9q-5.1-48.7 40.5-15.6q10.5-177.5 147.6-125.9q20.9-127 73.8-51.8q80-242 193.8-208.5q113.9 33.6 73.6 240q63.9-50.5 108.2-25.2c43 24.6 0.1 132.8-2.4 138.8z" /><path class="s18" d="m1861.8 504.4q28.7-41.7-2.3-40.4c4.2 0.7 9.3 2.9 10.9 9.2q2.9 11.5-12.1 33.9q56.9-15.1 145.7-11.7c85.3 3.3 132.5 10.3 135.7 10.7c-6-1.1-150.3-26.4-277.9-1.7z" /><path class="s19" d="m1489.1 325.9q21.6 38.9 95.4 44.9q73.9 6.1 167.9-20.6l-42.7 36.5q-19.8-13.5-52.1 15.4q-29.2-0.9-59 15.9q-50.2 6.2-89.7-18q-34.2-20.9-19.8-74.1z" /><path class="s20" d="m1858.2 463.8q-23-1.8-85.6 20.2l17.1-18.2q-21.9-9.9-58.2-7.5l-18.6-17.8q35 17.5 78.8 14.2q43.8-3.3 78-24.8q-3.8 14.3-11.5 33.9z" /><path class="s21" d="m1447.5 459q52.8 30.5 129.2 48l-49.9 0.1q-17.6-14.5-73.7-38.7q-15.2-15.4-38.4-0.8l8.2 5.5l-12.5 5.2q-59 1.7-105.9 22.5l19.4-17.4q128.4-21.1 166.2-63.8l23.1 1.8q-49.1 19.8-65.7 37.6z" /><path class="s22" d="m27.3 398.2q29.8-61 67.9-20.6q18.6-67.8 76.1-49.3q33.6-77.9 120.5-80.9q86.9-3 142 127.7l99.4 2.2q-171.7 22.3-698.5 46.2z" /><path class="s16" d="m-165.3 423.5q222.3-28.8 378.1-39q155.8-10.2 320.4-7.2q-195 25.6-698.5 46.2z" /><path class="s23" d="m149.9 378.2q29-121.9 131.5-128.9q102.5-7.1 152.4 125.8q-210.4 15.4-283.9 3.1z" /><path class="s24" d="m129.3 383.8q-8.8 5.1-36.3 7.5q13.5-79.2 72.6-61.7q-27.5 49.1-36.3 54.2z" /><path class="s25" d="m62.9 394.5q-16 2.3-33.8 2.7q7.8-20.6 26.6-28.4q18.7-7.9 37.5 6.9q-14.2 16.6-30.3 18.8z" /><path class="s26" d="m433.8 375.1q-123-0.2-357.1 20.9l-49.4 2.2q81.4-10.9 99.2-18.7q17.7-7.8 42.6-51.5l2.2 0.3l-16.6 34.5q9.4 25.3 118.7 11.5q109.3-13.7 146.6-27.1z" /><path class="s27" d="m329.8 319.4q13.4-10.6 17.7 0.3q13.3-90.9 53.2-87.7q39.8 3.2 47.1 42.7q36.1-24.5 78.6 35l60.7 6.8l-306.6 10.9z" /><path class="s16" d="m280.5 327.4q170.1-26.6 305-10.8z" /><path class="s28" d="m412.4 304.5q22.7-36.6 57.2-33.6q34.5 3 56.8 38.8q-81.7-6-114-5.2z" /><path class="s29" d="m395.7 307.6q-9.8 5.3-44.9 8.2c1-12 12.5-75.8 45.3-81.3q32.8-5.6 49.6 36.2c-15.3 3.7-40.1 31.6-50 36.9z" /></svg>