<svg version="1.2" xmlns="http://www.w3.org/2000/svg" viewBox="0 0 1800 800" width="1800" height="800"><style>.s0{fill:#4a6b40}.s1{fill:#a6be00}.s2{opacity: .5;mix-blend-mode: soft-light;fill:#ffac6d}.s3{opacity: .5;mix-blend-mode: soft-light;fill:#ffac9f}</style><path class="s0" d="m0 656.3l11.6-50.5l9.9 33.6l5.7-17.1l31.1 86.3l-58.3-4z" /><path class="s0" d="m242.8 671.3l11.7-50.5l9.8 33.6l5.7-17.1l33.2 84.9l-60.4-2.6z" /><path class="s0" d="m90.8 710.6l12.2-23.8l16.3-8l-14.2 2.7l18.3-43.2l8.7-3.5h-7.5l24.6-60.3l16.5 63.8l-17.4-13.3l-0.6 7.4l18 10.2v2.4l-19-10.2l20.3 15.2l16 66.1z" /><path class="s0" d="m187 716.3l14.5-31.2l20.8-9.7l0.5-3.6l-18.7 7.9l0.8-4.1l17.4-8.4l-16.1 4l27.1-70.6l8.1 34.2l-10.2-2.2l10.1 3l1.5 9.7l-10.6-8.6l-0.2 2.1l10.9 7.8l14 73.4z" /><path class="s0" d="m312.5 723.7l20.7-70.7l7.5 35.4l-9 4.9l9-3.8l8.2 35.5z" /><path class="s0" d="m468.7 731.1l20.6-55.6l7.6 27.8l-9 3.9l9-3l8.1 27.9z" /><path class="s0" d="m1427.9 712.4l-60.4 2.6l33.3-84.9l5.7 17.1l9.8-33.6l11.6 50.5z" /><path class="s0" d="m1487.8 708.9l15.9-66.1l20.3-15.2l-18.9 10.2v-2.4l18-10.2l-0.6-7.4l-17.4 13.3l16.5-63.8l24.6 60.3h-7.6l8.7 3.5l18.4 43.2l-14.2-2.7l16.3 8l12.1 23.9z" /><path class="s0" d="m1105.8 738.8l6.4-26.4l8.1-6.1l-7.6 4.1v-1l7.2-4.1l-0.2-2.9l-7 5.3l6.6-25.5l9.9 24.1h-3.1l3.5 1.4l7.4 17.3l-5.7-1.1l6.5 3.2l4.9 9.6z" /><path class="s0" d="m1413.9 712.8l13.9-73.4l11-7.8l-0.2-2.1l-10.7 8.6l1.6-9.7l10-3l-10.1 2.2l8-34.2l27.1 70.6l-16.1-3.9l17.5 8.3l0.7 4.2l-18.7-8l0.5 3.6l20.9 9.7l14.4 31.2z" /><path class="s0" d="m1581.2 693.9l13.9-73.4l11-7.8l-0.2-2.1l-10.6 8.6l1.5-9.8l10-3l-10.1 2.3l8.1-34.2l27.1 70.6l-16.2-4l17.5 8.4l0.7 4.1l-18.7-7.9l0.5 3.6l20.9 9.7l14.4 31.1z" /><path class="s0" d="m1321.9 714.1l8.1-35.5l9 3.7l-9-4.9l7.5-35.3l20.7 70.7z" /><path class="s0" d="m1710.1 661l8.1-52.2l9.1 5.6l-9.1-7.2l7.6-52l20.7 104z" /><path class="s0" d="m1690.4 662.6l8.1-35.5l8-7.2l-8 6.1l7.5-35.4l20.7 70.8z" /><path class="s0" d="m65.5 720l20.7-70.8l7.5 35.4l-9 4.9l9-3.8l8.1 35.5z" /><path class="s0" d="m1321.9 714.1l-106.8 8.1l17.4-7.2h32.7l43.2-9.8l13.9 5.3z" /><path class="s0" d="m1032.5 732.5l2.6-4l20.2-6.3l11.7 8.8z" /><path class="s0" d="m1077 730.5l1.8-2l2.4-2.9l5 1.7v2.3z" /><path class="s0" d="m926 735.1v-2.6l3.6-2l7.4 4.8z" /><path class="s0" d="m510.1 730.3l4-3.4l7.6 1.3v2.8z" /><path class="s1" d="m1801.5 800.4h-1800v-95.5q446.7 33.4 880.2 31.1q433.5-2.3 919.8-79.3z" /><path class="s0" d="m1408.9 708.6l33.3-16.2h13.2l13.8-5.5l131-8.1l26.5-9.1h2.5l64.7-21.2h106.1v7.8q-301.5 47.5-391.1 52.3z" /><path class="s2" d="m0 746.3l538.4 3.8l-538.4 11.5z" /><path class="s2" d="m952 735.3l-128.1 11l-679.8-4.1l-108.5-33.5q469.4 30.1 916.4 26.6z" /><path class="s2" d="m900.5 746.3l138.6-7.5l393.1 11.3z" /><path class="s2" d="m1800 729l-741.9 4.9l741.9-58.4z" /><path class="s3" d="m1432.2 750.1l367.8-11.2v17z" /></svg>