<svg version="1.2" xmlns="http://www.w3.org/2000/svg" viewBox="0 0 1800 800" width="1800" height="800"><defs><linearGradient id="P" gradientUnits="userSpaceOnUse"/><linearGradient id="g1" x1="-4" y1="800" x2="-4" y2="750.7" href="#P"><stop stop-color="#0979c7"/><stop offset="1" stop-color="#7fccc7"/></linearGradient><linearGradient id="g2" x1="1.9" y1="775" x2="1801.3" y2="775" href="#P"><stop/><stop offset="1" stop-color="#812533"/></linearGradient></defs><style>.s0{fill:url(#g1)}.s1{fill:#4a6b40}.s2{fill:#a95c48}.s3{opacity: .9;mix-blend-mode: screen;fill:url(#g2)}.s4{mix-blend-mode: soft-light;fill:#ffffff}.s5{fill:#ffe098}</style><path class="s0" d="m1800 755.9v44.1h-1800v-34q18-0.5 49.4-1.3c8-0.2 16.8-0.4 26.4-0.7q8.1-0.2 17-0.4q6.2-0.2 12.8-0.3c21.1-0.5 44.7-1.1 70.5-1.7c7.8-0.2 15.8-0.4 24-0.6q20.7-0.4 42.7-0.9q4.1-0.1 8.3-0.2q19.4-0.5 39.7-0.9q14.9-0.3 30.1-0.6q10.5-0.3 21.2-0.5c44.7-0.9 91.4-1.8 138.6-2.7q7.5-0.1 15-0.3c133-2.3 268.6-4.2 372.4-4.2c63.3 0 150.7 0.3 246.8 0.8q5.7 0 11.3 0c64.4 0.4 132.4 0.7 199.4 1.1q14.1 0.1 28.2 0.2q10.3 0.1 20.6 0.1c14.2 0.1 28.4 0.2 42.5 0.3q5.5 0 11 0.1c17 0.1 33.7 0.2 50.1 0.3q6.4 0 12.7 0.1c29.8 0.2 58.4 0.4 85.4 0.6q130.6 0.8 223.9 1.6z" /><g style="opacity: .4"><path class="s1" d="m49.4 764.7l-14.8 35.3l-7.4 17.7l-5.7-14.7l-9.9 29l-8.5-32l-3.1-11.6v-22.4q18-0.5 49.4-1.3z" /><path class="s1" d="m290.8 759l-18.6 41l-2.2 4.8l-1.9-4.8l-3.8-9.9l-3.4 9.9l-6.4 19l-5.1-19l-4-14.6l-2.6-9.9v-15.4q4.1-0.1 8.3-0.2q19.4-0.5 39.7-0.9z" /><path class="s1" d="m157.5 800l-10.8 7l15-7l4-1.8v2.1l-18 8.7l0.6 6.4l17.4-11.4l-16.5 54.9l-24.6-51.9h7.5l-8.7-3l-1.9-4l-16.4-33.2l14.2 2.2l-13.7-5.7c21.1-0.5 44.7-1.1 70.5-1.7l-9.1 32.3z" /><path class="s1" d="m251.1 759.9l-5.7 25.5l-2.5 11.4l-5.2 3.2l-5.7 3.5l0.2 1.8l7.6-5.3l3-2.1l-1.5 8.4l-10.1 2.6l10.2-1.9l-8.1 29.4l-16.2-36.4l-10.9-24.4l16.1 3.4l-17.4-7.2l-0.8-3.6l18.7 6.9l-0.5-3.1l-20.8-8.4l-1.4-2.6q20.7-0.4 42.7-0.9q4.1-0.1 8.3-0.2z" /><path class="s1" d="m340.7 763.1l-9-3.3l9 4.2l-7.5 30.5l-12.3-36.1q10.5-0.3 21.2-0.5z" /><path class="s1" d="m495.7 754.9l-6.4 20.4l-8.6-20.1q7.5-0.1 15-0.3z" /><path class="s1" d="m1427.9 753.3v28.4l-2.6 9.8l-2.3 8.5l-6.7 25.2l-8.6-25.2l-1.2-3.7l-1.5 3.7l-4.2 11l-5-11l-21.4-47.1c14.2 0.1 28.4 0.2 42.5 0.3q5.5 0 11 0.1z" /><path class="s1" d="m1567.8 768.4l-16.3 6.8l14.2-2.3l-13.4 27.1l-5 10.2l-8.7 3h7.6l-24.6 51.9l-16.5-54.9l17.4 11.4l0.6-6.4l-18-8.8v-2l18.9 8.8l-20.3-13.2l-13-46.3c29.8 0.2 58.4 0.4 85.4 0.6z" /><path class="s1" d="m1126.2 751.5l-6.9 14.6l-4.4-14.6q5.7 0 11.3 0z" /><path class="s1" d="m1448.4 778.2l-0.5 3.1l18.7-6.9l-0.7 3.6l-17.5 7.2l16.1-3.4l-8.1 18.2l-19 42.6l-8-29.4l10.1 1.9l-10-2.6l-1.6-8.4l10.7 7.4l0.2-1.8l-11-6.8l-0.6-2.9l-1.9-8.5l-8.4-38.3q5.5 0 11 0.1c17 0.1 33.7 0.2 50.1 0.3l-8.7 16.2z" /><path class="s1" d="m1353.8 752.8l-16 47.2l-0.2 0.7l-0.2-0.7l-7.4-29.8l9-4.2l-9 3.2l-4.4-16.6q14.1 0.1 28.2 0.2z" /><path class="s1" d="m1626.6 755.2l-16 47.2l-0.2 0.7l-0.2-0.7l-7.4-29.8l9-4.2l-9 3.2l-4.4-16.6q14.2 0.1 28.2 0.2z" /><path class="s1" d="m1718.6 755.2l-16 47.2l-0.3 0.7l-0.2-0.7l-7.3-29.8l9-4.2l-9 3.2l-4.4-16.6q14.1 0.1 28.2 0.2z" /><path class="s1" d="m93.7 764l-7.5 30.5l-10.4-30.5q8.1-0.2 17-0.4z" /></g><path class="s2" d="m1800 760.4q-704.9-8.4-980.1-8.4q-275.1 0-819.9 18v-4q454.5-15.9 820-15.9q365.6 0 980 5.8z" /><path class="s3" d="m1.9 779h1799.4l-1.3 21h-1796.9z" /><path class="s4" d="m385.1 759l813.4-4.8l109.9 1l-935.2 4.1z" /><path class="s5" d="m774.1 758.4c2.1 0 2.1-3.2 0-3.2c-2 0-2 3.2 0 3.2z" /><path class="s5" d="m665.8 759.3c2.1 0 2.1-3.2 0-3.2c-2 0-2 3.2 0 3.2z" /><path class="s5" d="m568.2 760.9c2.1 0 2.1-3.2 0-3.2c-2 0-2 3.2 0 3.2z" /><path class="s5" d="m1189.2 762.5c2 0 2-3.2 0-3.2c-2.1 0-2.1 3.2 0 3.2z" /><path class="s5" d="m385.1 762.2c2 0 2-3.2 0-3.2c-2.1 0-2.1 3.2 0 3.2z" /><path class="s5" d="m1044.3 756.9c2 0 2-3.2 0-3.2c-2.1 0-2.1 3.2 0 3.2z" /><path class="s5" d="m1308.4 775.3c2 0 2.1-3.2 0-3.2c-2.1 0-2.1 3.2 0 3.2z" /><path class="s5" d="m162.2 771.6c2 0 2-3.2 0-3.2c-2.1 0-2.1 3.2 0 3.2z" /><path class="s5" d="m1081.6 756.9c2 0 2-3.2 0-3.2c-2.1 0-2.1 3.2 0 3.2z" /><path class="s5" d="m693.7 758.4c2.1 0 2.1-3.2 0-3.2c-2 0-2 3.2 0 3.2z" /><path class="s5" d="m656.2 780.6c2.1 0 2.1-3.1 0-3.1c-2 0-2 3.1 0 3.1z" /><path class="s5" d="m590.7 771.6c2 0 2-3.2 0-3.2c-2.1 0-2.1 3.2 0 3.2z" /><path class="s5" d="m467.1 779c2.1 0 2.1-3.1 0-3.1c-2 0-2 3.1 0 3.1z" /><path class="s5" d="m715.2 763.6c2 0 2.1-3.2 0-3.2c-2.1 0-2.1 3.2 0 3.2z" /><path class="s5" d="m729.9 776.9c2 0 2-3.2 0-3.2c-2.1 0-2.1 3.2 0 3.2z" /><path class="s5" d="m703.4 763.3c2 0 2-3.2 0-3.2c-2.1 0-2.1 3.2 0 3.2z" /><path class="s5" d="m957.8 760.1c2.1 0 2.1-3.2 0-3.2c-2 0-2 3.2 0 3.2z" /><path class="s5" d="m815.4 761.7c2 0 2-3.2 0-3.2c-2.1 0-2.1 3.2 0 3.2z" /><path class="s5" d="m1031 758.5c2 0 2-3.2 0-3.2c-2.1 0-2.1 3.2 0 3.2z" /><path class="s5" d="m1094.3 756.9c2 0 2-3.2 0-3.2c-2.1 0-2.1 3.2 0 3.2z" /><path class="s5" d="m842.3 754.8c2.1 0 2.1-3.2 0-3.2c-2 0-2 3.2 0 3.2z" /><path class="s5" d="m1018.1 769.1c2.1 0 2.1-3.2 0-3.2c-2 0-2 3.2 0 3.2z" /><path class="s5" d="m1077 778.4c2 0 2-3.1 0-3.1c-2.1 0-2.1 3.1 0 3.1z" /><path class="s5" d="m1177.4 762.5c2.1 0 2.1-3.2 0-3.2c-2 0-2 3.2 0 3.2z" /><path class="s5" d="m1268.7 788c2 0 2-3.2 0-3.2c-2.1 0-2.1 3.2 0 3.2z" /><path class="s5" d="m775.7 767.7c2 0 2-3.2 0-3.2c-2.1 0-2.1 3.2 0 3.2z" /><path class="s5" d="m750.8 765.2c2.1 0 2.1-3.2 0-3.2c-2 0-2 3.2 0 3.2z" /><path class="s5" d="m1464.5 784.9c2.1 0 2.1-3.1 0-3.1c-2 0-2 3.1 0 3.1z" /><path class="s5" d="m1090.8 763.6c2 0 2-3.2 0-3.2c-2.1 0-2.1 3.2 0 3.2z" /><path class="s5" d="m985.5 763.8c2 0 2-3.2 0-3.2c-2.1 0-2.1 3.2 0 3.2z" /><path class="s5" d="m912.4 758.4c2.1 0 2.1-3.2 0-3.2c-2 0-2.1 3.2 0 3.2z" /><path class="s5" d="m856.7 759.9c2 0 2-3.1 0-3.1c-2.1 0-2.1 3.1 0 3.1z" /><path class="s5" d="m639.9 767.7c2.1 0 2.1-3.2 0-3.2c-2 0-2 3.2 0 3.2z" /><path class="s5" d="m1253.3 760.4c2 0 2-3.2 0-3.2c-2.1 0-2.1 3.2 0 3.2z" /><path class="s5" d="m1081.6 756.9c2 0 2-3.2 0-3.2c-2.1 0-2.1 3.2 0 3.2z" /><path class="s5" d="m552 761.7c2.1 0 2.1-3.2 0-3.2c-2 0-2 3.2 0 3.2z" /><path class="s5" d="m529.5 771.6c2.1 0 2.1-3.2 0-3.2c-2 0-2 3.2 0 3.2z" /><path class="s5" d="m422.4 771c2.1 0 2.1-3.2 0-3.2c-2 0-2 3.2 0 3.2z" /><path class="s5" d="m619.9 763.6c2.1 0 2.1-3.2 0-3.2c-2 0-2 3.2 0 3.2z" /><path class="s5" d="m1142.7 780c2 0 2-3.1 0-3.1c-2.1 0-2.1 3.1 0 3.1z" /><path class="s5" d="m290.8 773.2c2.1 0 2.1-3.2 0-3.2c-2.1 0-2.1 3.2 0 3.2z" /><path class="s5" d="m1382.3 765.2c2 0 2-3.2 0-3.2c-2.1 0-2.1 3.2 0 3.2z" /><path class="s5" d="m1472.2 759.3c2.1 0 2.1-3.2 0-3.2c-2 0-2 3.2 0 3.2z" /><path class="s5" d="m1145 761.7c2 0 2-3.2 0-3.2c-2.1 0-2.1 3.2 0 3.2z" /><path class="s5" d="m635.9 759.3c2 0 2-3.2 0-3.2c-2.1 0-2.1 3.2 0 3.2z" /></svg>