<svg version="1.2" xmlns="http://www.w3.org/2000/svg" viewBox="0 0 1800 800" width="1800" height="800">
	<title>civitas-ai</title>
	<defs>
		<linearGradient id="g1" x1="-42.7" y1="867.2" x2="-42.7" y2="460.4" gradientUnits="userSpaceOnUse">
			<stop offset="0" stop-color="#8eebff"/>
			<stop offset="1" stop-color="#5e7af4"/>
		</linearGradient>
	</defs>
	<style>
		.s0 { fill: url(#g1) } 
		.s1 { opacity: .5;fill: #ffffff } 
		.s2 { mix-blend-mode: soft-light;fill: #ffffff } 
		.s3 { fill: #4f8df4 } 
		.s4 { fill: #7aa9f7 } 
		.s5 { opacity: .2;fill: #223995 } 
	</style>
	<g id="layer1">
		<g id="&lt;Group&gt;">
			<g id="&lt;Clip Group&gt;">
				<g id="&lt;Group&gt;">
					<path id="&lt;Path&gt;" class="s0" d="m161.3 579.2l277.2 133.4h10.1l231.7-53.8h8.1l97.5-53l116.4 58.3l5.1 0.5l60.7 37.1l4.1-1.4l130.3-133.5l4 0.5l97.2-106.9h9.9l80.8 108.9l8.4 6.8l60.3 82.8l133-18.8l3.6-4.1l262.8-74l7.1 2.5l71.6 97.6l65.8 25.2l54.3-67.7v212.9l-2000 34.7v-146.7l171.9-103.9l8.1-4.8z" />
					<path id="&lt;Path&gt;" class="s1" d="m1106.5 567.3l13.1 59.1l-10.1 19.2l6.3-19.2l-2.1-5.5l-13.3 5.8l-48.5 40.9l40.9-88.2l9.7-12.6z" />
					<path id="&lt;Compound Path&gt;" fill-rule="evenodd" class="s2" d="m1163.9 723.5l50.5-75.7l-14.1-105.8l-15.1 22l18.4-55.1l-7.9 29.7l18.7-57.4l-10.7-16.1l-3.7 0.9l-22.9 18.7l26.6-24.4h9.9l80.8 109l-5.3 11.4l13.7-4.6l60.3 82.8l-10.4-1.4l-41.3-46.6l4.1 12.9l62.2 91.5zm48.5-44.8l-3.7 1.5l-9.1 7.1h6.4zm55 31.1h12.8l4.6-34.9l-4.6 2zm-49.5-176.9l4.8-56l-4.3 2.7l-13.8 57.7zm-22.5 152.7l9.4-5.1l24.7-32.1l-12.6 3.8z" />
					<path id="&lt;Path&gt;" class="s2" d="m1177.2 582.6l-39 72.6l34.5-76.8l7.9-6.1z" />
					<path id="&lt;Path&gt;" class="s2" d="m986.2 730.3l65.7-62.7l-43.7 48.6l10.9-3.7l-9 16.9z" />
					<path id="&lt;Compound Path&gt;" fill-rule="evenodd" class="s2" d="m902.4 664.1l-32.5 70.7l-95 3.7l36.5-45.6l-46.3-24.6l6.1-7.1l-11.3 0.2l-37.4 24.1l70.1-62.6l-6.7-17.1zm-148.3 17l9.8-13.4l1.2 0.6zm30-41.9l-8.9 3l-12.2 14.6h6.5zm28.4 64.7l-1.8-3.4l-5.3 6.9l3.6 1.5zm21.6-41.6l-7.9 4.5l-18.6 21h4.9z" />
					<path id="&lt;Path&gt;" class="s2" d="m934.6 681.2l-12.5 42.3l19.6-37.9l26.4 16.1l-17.2 28.6l-74.8 4.3l31.3-70z" />
					<path id="&lt;Path&gt;" class="s2" d="m688.4 658.8l-136.4 88.3l-19.2 0.7l147.5-89z" />
					<path id="&lt;Compound Path&gt;" fill-rule="evenodd" class="s2" d="m438.5 712.6l-38.2 40.3l-62 2.4l43.9-54.8l-10.4-1.5l-61.5 57.3l-134.3 5.2l73.6-134.3l-26.6-9.9l-96.8 127.1l-16.1 1.1l81.9-118.3l-6.1-3.4l-37.1 27.3l12.5-71.9zm-80.1-29.2l-4.6-3l-20.1 20.1l-14.8 34.2z" />
					<path id="&lt;Path&gt;" class="s2" d="m1496.1 640.1l-45.7 45.5l30-36.8l-7.2 1.1l-58.8 49.1l-51.3-40.1z" />
					<path id="&lt;Path&gt;" class="s2" d="m1762.5 562l7.1 2.5l71.6 97.6l-97.1 38.4l49.5-96l-6.3-4.3l-71 102l-18.7 0.8l38.4-79.2l-47.4 79.5l-66.8 3.2l101.1-112.7l-61.6 17.1l-68.8 53.7l68.8-74.1z" />
					<path id="&lt;Path&gt;" class="s2" d="m1538.3 709.1l54.2-44.5l-42 44z" />
					<path id="&lt;Path&gt;" class="s2" d="m1558.4 669.5l34.1-42.3l9.9-3.4z" />
					<path id="&lt;Path&gt;" class="s3" d="m252.8 758.8l11.9-11l32.1 3.7l3.1 4.4l3.6-0.4l6.3-3.9l15.5 2.8l10.5 1l16.9-2.1l2.7-2.9l5.7-1.4l12.5 4.3l3.7-1.3l14.1 1.2z" />
					<path id="&lt;Path&gt;" class="s3" d="m614.5 744.6l12.1-6.1h19.3l61 3.1z" />
					<path id="&lt;Path&gt;" class="s2" d="m1222.7 476.9l58.7 78.8l-44.3-59.7l-1 4l29.4 50.7l-36 97.7l-12.6 3.8l-2.5-4.4l-6.8-41.3l15.1-52.7l-15.8 28.2l-6.1-37.1l18.7-13.3z" />
					<path id="&lt;Path&gt;" class="s2" d="m1265.6 714.3h-18.7l47.8-105.8l-3.6-0.5l-31.4 65.2l29.4-92.5l13.7-4.6z" />
					<path id="&lt;Path&gt;" class="s2" d="m1100.4 626.7l-46.8 39.5l27.1-46.7l22.5-43.4l-10.4 3.3l9.7-12.6l4 0.5l10.4 51.2l-3.2 2.4z" />
					<path id="&lt;Path&gt;" class="s2" d="m1346 668.6l-2.1 43.2l-33.5 0.9l23.2-58.5l-4.1 1l-22.4 57.6l-28.6 0.7l37-89.7z" />
					<path id="&lt;Path&gt;" class="s2" d="m763.9 667.6l20.2-28.5l-8.9 3l-15.3 19.3l-11.8 0.8l-4.8 1.2l49.3-40.5l-6.7-17.1l55.8 27.9l-15.5 33.1l20.1-30.7l14.4 7.2l-55.4 82.1l-21.2 0.5l27.3-33l-34.1-18.1l30.2-35.7l-32.4 34.5z" />
					<path id="&lt;Path&gt;" class="s2" d="m857.6 661.1l44.8 3l-26.3 59.4l-37.2 1l24.5-61.7l-0.7 7.1l-31.1 54.6h-13.1z" />
					<path id="&lt;Path&gt;" class="s2" d="m353.5 671.7l0.3 8.7l-20.1 20.1l-16.1 36.7l-17.7 0.9l27-70.7l-32.4 70.7h-14.6l39-75.5l-89.8 77.2h-23.7l113.5-84.8z" />
					<path id="&lt;Path&gt;" class="s2" d="m438.5 712.6l-21.4 22.5l-16.1 0.4l10-32.5l-12 32.6l-45.8 0.9l29-36l4.7-12.7z" />
					<path id="&lt;Path&gt;" class="s2" d="m1621.8 706.5l126.4-140.4l14.3-4.1l7.1 2.5l21.6 29.4l-74.9 108.3l-7 0.8l53.8-101.6l-23.5 26.6l-34.9 74.7l-7.1 0.3l35.4-79.2l-44.4 79.5l-50.1 3.2l90.2-113.9l-99.8 112.1z" />
					<path id="&lt;Path&gt;" class="s3" d="m-38.7 749l2000-56.2v195.4h-2000z" />
					<path id="&lt;Path&gt;" class="s4" d="m160.7 741.6l1800.6-48.8l-1800.6 69.3z" />
					<path id="&lt;Path&gt;" class="s5" d="m1086.9 718.3l51.3-63.1l-43.4 62.9z" />
					<path id="&lt;Path&gt;" class="s5" d="m688.4 728.3l-6.2 0.2l40.3-43z" />
					<path id="&lt;Path&gt;" class="s2" d="m688.4 670.4l9.4 21.2l-16.2 29.6l10.2-25.4l-11.4 17l4.7-38.6z" />
					<path id="&lt;Path&gt;" class="s2" d="m1147.4 661.9l14.6 30.5l-14.6-6.9z" />
					<path id="&lt;Path&gt;" class="s2" d="m1571 643.9l-36.6 48.3l-80.3 13.8l75.5-15.3l-75.5 10.2l6.4-13.4z" />
					<path id="&lt;Path&gt;" class="s2" d="m91.4 743.8l-44.2 2.5l33-28.5l-6.9 0.5l-64.3 30l-41.6 0.7l74.6-35.5h71.3z" />
					<path id="&lt;Path&gt;" class="s2" d="m212.8 604.5l-102.7 141l81.9-118.3l-6.1-3.4l10.3-27.8l-5.8-2.8l-29.1 48.6l-12.5 9.3l12.5-71.9z" />
					<path id="&lt;Path&gt;" class="s2" d="m1816.5 628.4l-30.5 55.5l-24.7 9.8l38-75.2l-1.6-2.1l-48.7 82.2l-3.9 0.1l50.7-98.4z" />
					<path id="&lt;Path&gt;" class="s2" d="m1826 641.3l-26.4 37.3l-2.7 1l23.9-45.3z" />
					<path id="&lt;Path&gt;" class="s2" d="m1892.9 682.2l-15.4 13.8l-18.2-0.1l18.2-19.9l-6.9-1.1l-24.7 22.3l-35.2 1.8l39-33.6z" />
				</g>
			</g>
		</g>
	</g>
</svg>